<mxfile host="app.diagrams.net" agent="Mozilla/5.0 (Windows NT 10.0; Win64; x64) AppleWebKit/537.36 (KHTML, like Gecko) Chrome/130.0.0.0 Safari/537.36" version="28.0.6">
  <diagram name="Page-1" id="7a7HZ6y4lpq6L6LOhhoB">
    <mxGraphModel dx="-165" dy="764" grid="1" gridSize="10" guides="1" tooltips="1" connect="1" arrows="1" fold="1" page="1" pageScale="1" pageWidth="1654" pageHeight="1169" math="0" shadow="0">
      <root>
        <mxCell id="0" />
        <mxCell id="1" parent="0" />
        <mxCell id="wPX3c_3ttmvdcpbLun5Z-45" value="" style="rounded=1;whiteSpace=wrap;html=1;fillColor=none;dashed=1;" parent="1" vertex="1">
          <mxGeometry x="2427.25" y="230" width="550" height="510" as="geometry" />
        </mxCell>
        <mxCell id="wPX3c_3ttmvdcpbLun5Z-31" value="&lt;font style=&quot;font-size: 17px;&quot;&gt;erp_loc_a101&lt;/font&gt;" style="swimlane;fontStyle=0;childLayout=stackLayout;horizontal=1;startSize=30;fillColor=#fff2cc;horizontalStack=0;resizeParent=1;resizeParentMax=0;resizeLast=0;collapsible=1;marginBottom=0;html=1;rounded=1;arcSize=20;strokeColor=#d6b656;direction=east;" parent="1" vertex="1">
          <mxGeometry x="2654.13" y="494" width="160" height="80" as="geometry">
            <mxRectangle x="470" y="240" width="60" height="30" as="alternateBounds" />
          </mxGeometry>
        </mxCell>
        <mxCell id="wPX3c_3ttmvdcpbLun5Z-32" value="&lt;font&gt;CID&lt;/font&gt;" style="text;strokeColor=none;fillColor=none;align=left;verticalAlign=middle;spacingLeft=4;spacingRight=4;overflow=hidden;rotatable=0;points=[[0,0.5],[1,0.5]];portConstraint=eastwest;whiteSpace=wrap;html=1;rounded=0;fontSize=18;" parent="wPX3c_3ttmvdcpbLun5Z-31" vertex="1">
          <mxGeometry y="30" width="160" height="31" as="geometry" />
        </mxCell>
        <mxCell id="AhRZz3oua6yFKILHg_TF-6" value="&lt;div&gt;&lt;font&gt;&lt;span&gt;CUSTOMERS&lt;/span&gt;&lt;/font&gt;&lt;/div&gt;" style="text;html=1;strokeColor=#9673a6;fillColor=#e1d5e7;align=center;verticalAlign=middle;whiteSpace=wrap;overflow=hidden;fontSize=13;fontStyle=1;labelPosition=center;verticalLabelPosition=middle;" vertex="1" parent="wPX3c_3ttmvdcpbLun5Z-31">
          <mxGeometry y="61" width="160" height="19" as="geometry" />
        </mxCell>
        <mxCell id="wPX3c_3ttmvdcpbLun5Z-43" value="" style="rounded=1;whiteSpace=wrap;html=1;fillColor=none;dashed=1;" parent="1" vertex="1">
          <mxGeometry x="1830" y="230" width="550" height="510" as="geometry" />
        </mxCell>
        <mxCell id="wPX3c_3ttmvdcpbLun5Z-1" value="&lt;font style=&quot;font-size: 17px;&quot;&gt;crm_cust_info&lt;/font&gt;" style="swimlane;fontStyle=0;childLayout=stackLayout;horizontal=1;startSize=30;fillColor=#dae8fc;horizontalStack=0;resizeParent=1;resizeParentMax=0;resizeLast=0;collapsible=1;marginBottom=0;html=1;rounded=1;arcSize=20;strokeColor=#6c8ebf;direction=east;" parent="1" vertex="1">
          <mxGeometry x="2160" y="500" width="160" height="110" as="geometry">
            <mxRectangle x="470" y="240" width="60" height="30" as="alternateBounds" />
          </mxGeometry>
        </mxCell>
        <mxCell id="wPX3c_3ttmvdcpbLun5Z-2" value="&lt;font&gt;cst_id&lt;/font&gt;" style="text;strokeColor=none;fillColor=none;align=left;verticalAlign=middle;spacingLeft=4;spacingRight=4;overflow=hidden;rotatable=0;points=[[0,0.5],[1,0.5]];portConstraint=eastwest;whiteSpace=wrap;html=1;rounded=0;fontSize=18;" parent="wPX3c_3ttmvdcpbLun5Z-1" vertex="1">
          <mxGeometry y="30" width="160" height="31" as="geometry" />
        </mxCell>
        <mxCell id="wPX3c_3ttmvdcpbLun5Z-24" value="&lt;font&gt;cst_key&lt;/font&gt;" style="text;strokeColor=none;fillColor=none;align=left;verticalAlign=middle;spacingLeft=4;spacingRight=4;overflow=hidden;rotatable=0;points=[[0,0.5],[1,0.5]];portConstraint=eastwest;whiteSpace=wrap;html=1;rounded=0;fontSize=18;" parent="wPX3c_3ttmvdcpbLun5Z-1" vertex="1">
          <mxGeometry y="61" width="160" height="31" as="geometry" />
        </mxCell>
        <mxCell id="AhRZz3oua6yFKILHg_TF-4" value="&lt;div&gt;&lt;font&gt;&lt;span&gt;CUSTOMERS&lt;/span&gt;&lt;/font&gt;&lt;/div&gt;" style="text;html=1;strokeColor=#9673a6;fillColor=#e1d5e7;align=center;verticalAlign=middle;whiteSpace=wrap;overflow=hidden;fontSize=12;fontStyle=1;labelPosition=center;verticalLabelPosition=middle;" vertex="1" parent="wPX3c_3ttmvdcpbLun5Z-1">
          <mxGeometry y="92" width="160" height="18" as="geometry" />
        </mxCell>
        <mxCell id="wPX3c_3ttmvdcpbLun5Z-14" value="&lt;font style=&quot;font-size: 17px;&quot;&gt;crm_sales_details&lt;/font&gt;" style="swimlane;fontStyle=0;childLayout=stackLayout;horizontal=1;startSize=30;fillColor=#dae8fc;horizontalStack=0;resizeParent=1;resizeParentMax=0;resizeLast=0;collapsible=1;marginBottom=0;html=1;rounded=1;arcSize=20;strokeColor=#6c8ebf;direction=east;" parent="1" vertex="1">
          <mxGeometry x="1890" y="418" width="160" height="110" as="geometry">
            <mxRectangle x="470" y="240" width="60" height="30" as="alternateBounds" />
          </mxGeometry>
        </mxCell>
        <mxCell id="wPX3c_3ttmvdcpbLun5Z-15" value="&lt;font&gt;prd_key&lt;/font&gt;" style="text;strokeColor=none;fillColor=none;align=left;verticalAlign=middle;spacingLeft=4;spacingRight=4;overflow=hidden;rotatable=0;points=[[0,0.5],[1,0.5]];portConstraint=eastwest;whiteSpace=wrap;html=1;rounded=0;fontSize=18;" parent="wPX3c_3ttmvdcpbLun5Z-14" vertex="1">
          <mxGeometry y="30" width="160" height="31" as="geometry" />
        </mxCell>
        <mxCell id="wPX3c_3ttmvdcpbLun5Z-18" value="&lt;font&gt;cst_id&lt;/font&gt;" style="text;strokeColor=none;fillColor=none;align=left;verticalAlign=middle;spacingLeft=4;spacingRight=4;overflow=hidden;rotatable=0;points=[[0,0.5],[1,0.5]];portConstraint=eastwest;whiteSpace=wrap;html=1;rounded=0;fontSize=18;" parent="wPX3c_3ttmvdcpbLun5Z-14" vertex="1">
          <mxGeometry y="61" width="160" height="31" as="geometry" />
        </mxCell>
        <mxCell id="AhRZz3oua6yFKILHg_TF-8" value="SALES ORDERS" style="text;html=1;strokeColor=#B20000;fillColor=#e51400;align=center;verticalAlign=middle;whiteSpace=wrap;overflow=hidden;fontSize=13;fontStyle=1;labelPosition=center;verticalLabelPosition=middle;fontColor=#ffffff;" vertex="1" parent="wPX3c_3ttmvdcpbLun5Z-14">
          <mxGeometry y="92" width="160" height="18" as="geometry" />
        </mxCell>
        <mxCell id="wPX3c_3ttmvdcpbLun5Z-16" value="&lt;font style=&quot;font-size: 17px;&quot;&gt;crm_prd_info&lt;/font&gt;" style="swimlane;fontStyle=0;childLayout=stackLayout;horizontal=1;startSize=30;fillColor=#dae8fc;horizontalStack=0;resizeParent=1;resizeParentMax=0;resizeLast=0;collapsible=1;marginBottom=0;html=1;rounded=1;arcSize=20;strokeColor=#6c8ebf;direction=east;" parent="1" vertex="1">
          <mxGeometry x="2155" y="332" width="160" height="110" as="geometry">
            <mxRectangle x="470" y="240" width="60" height="30" as="alternateBounds" />
          </mxGeometry>
        </mxCell>
        <mxCell id="wPX3c_3ttmvdcpbLun5Z-17" value="&lt;font&gt;prd_id&lt;/font&gt;&lt;div&gt;&lt;font&gt;&lt;br&gt;&lt;/font&gt;&lt;/div&gt;" style="text;strokeColor=none;fillColor=none;align=left;verticalAlign=middle;spacingLeft=4;spacingRight=4;overflow=hidden;rotatable=0;points=[[0,0.5],[1,0.5]];portConstraint=eastwest;whiteSpace=wrap;html=1;rounded=0;fontSize=18;" parent="wPX3c_3ttmvdcpbLun5Z-16" vertex="1">
          <mxGeometry y="30" width="160" height="31" as="geometry" />
        </mxCell>
        <mxCell id="gMFk5O1mdd122XbkJ8B--1" value="cat_id" style="text;strokeColor=none;fillColor=none;align=left;verticalAlign=middle;spacingLeft=4;spacingRight=4;overflow=hidden;rotatable=0;points=[[0,0.5],[1,0.5]];portConstraint=eastwest;whiteSpace=wrap;html=1;rounded=0;fontSize=18;" parent="wPX3c_3ttmvdcpbLun5Z-16" vertex="1">
          <mxGeometry y="61" width="160" height="31" as="geometry" />
        </mxCell>
        <mxCell id="AhRZz3oua6yFKILHg_TF-1" value="&lt;font&gt;&lt;b&gt;PRODUCTS&lt;/b&gt;&lt;/font&gt;&lt;div&gt;&lt;font&gt;&lt;b&gt;&lt;br&gt;&lt;/b&gt;&lt;/font&gt;&lt;/div&gt;" style="text;html=1;strokeColor=#b85450;fillColor=#f8cecc;align=center;verticalAlign=middle;whiteSpace=wrap;overflow=hidden;fontSize=13;" vertex="1" parent="wPX3c_3ttmvdcpbLun5Z-16">
          <mxGeometry y="92" width="160" height="18" as="geometry" />
        </mxCell>
        <mxCell id="wPX3c_3ttmvdcpbLun5Z-19" style="edgeStyle=orthogonalEdgeStyle;rounded=0;orthogonalLoop=1;jettySize=auto;html=1;entryX=0;entryY=0.5;entryDx=0;entryDy=0;" parent="1" source="wPX3c_3ttmvdcpbLun5Z-18" target="wPX3c_3ttmvdcpbLun5Z-2" edge="1">
          <mxGeometry relative="1" as="geometry" />
        </mxCell>
        <mxCell id="wPX3c_3ttmvdcpbLun5Z-20" style="edgeStyle=orthogonalEdgeStyle;rounded=0;orthogonalLoop=1;jettySize=auto;html=1;entryX=0;entryY=0.5;entryDx=0;entryDy=0;" parent="1" source="wPX3c_3ttmvdcpbLun5Z-15" target="wPX3c_3ttmvdcpbLun5Z-17" edge="1">
          <mxGeometry relative="1" as="geometry" />
        </mxCell>
        <mxCell id="wPX3c_3ttmvdcpbLun5Z-21" value="&lt;font style=&quot;font-size: 17px;&quot;&gt;erp_cust_az12&lt;/font&gt;" style="swimlane;fontStyle=0;childLayout=stackLayout;horizontal=1;startSize=30;fillColor=#fff2cc;horizontalStack=0;resizeParent=1;resizeParentMax=0;resizeLast=0;collapsible=1;marginBottom=0;html=1;rounded=1;arcSize=20;strokeColor=#d6b656;direction=east;" parent="1" vertex="1">
          <mxGeometry x="2656.76" y="631" width="160" height="80" as="geometry">
            <mxRectangle x="470" y="240" width="60" height="30" as="alternateBounds" />
          </mxGeometry>
        </mxCell>
        <mxCell id="wPX3c_3ttmvdcpbLun5Z-22" value="&lt;font&gt;CID&lt;/font&gt;" style="text;strokeColor=none;fillColor=none;align=left;verticalAlign=middle;spacingLeft=4;spacingRight=4;overflow=hidden;rotatable=0;points=[[0,0.5],[1,0.5]];portConstraint=eastwest;whiteSpace=wrap;html=1;rounded=0;fontSize=18;" parent="wPX3c_3ttmvdcpbLun5Z-21" vertex="1">
          <mxGeometry y="30" width="160" height="31" as="geometry" />
        </mxCell>
        <mxCell id="AhRZz3oua6yFKILHg_TF-7" value="&lt;div&gt;&lt;font&gt;&lt;span&gt;CUSTOMERS&lt;/span&gt;&lt;/font&gt;&lt;/div&gt;" style="text;html=1;strokeColor=#9673a6;fillColor=#e1d5e7;align=center;verticalAlign=middle;whiteSpace=wrap;overflow=hidden;fontSize=13;fontStyle=1;labelPosition=center;verticalLabelPosition=middle;" vertex="1" parent="wPX3c_3ttmvdcpbLun5Z-21">
          <mxGeometry y="61" width="160" height="19" as="geometry" />
        </mxCell>
        <mxCell id="wPX3c_3ttmvdcpbLun5Z-26" value="&lt;span&gt;product historic fact table&lt;/span&gt;" style="text;html=1;align=center;verticalAlign=middle;whiteSpace=wrap;rounded=0;fontSize=15;fontStyle=0" parent="1" vertex="1">
          <mxGeometry x="2145" y="301" width="190" height="31" as="geometry" />
        </mxCell>
        <mxCell id="wPX3c_3ttmvdcpbLun5Z-27" value="&lt;span&gt;Customer fact table&lt;/span&gt;" style="text;html=1;align=center;verticalAlign=middle;whiteSpace=wrap;rounded=0;fontSize=16;fontStyle=0" parent="1" vertex="1">
          <mxGeometry x="2145" y="469" width="190" height="31" as="geometry" />
        </mxCell>
        <mxCell id="wPX3c_3ttmvdcpbLun5Z-28" value="&lt;span&gt;Sales record&lt;/span&gt;" style="text;html=1;align=center;verticalAlign=middle;whiteSpace=wrap;rounded=0;fontStyle=0;fontSize=14;" parent="1" vertex="1">
          <mxGeometry x="1875" y="395" width="190" height="23" as="geometry" />
        </mxCell>
        <mxCell id="wPX3c_3ttmvdcpbLun5Z-29" value="&lt;span&gt;extra customer info (BirthDate)&lt;/span&gt;" style="text;html=1;align=center;verticalAlign=middle;whiteSpace=wrap;rounded=0;fontSize=16;fontStyle=0" parent="1" vertex="1">
          <mxGeometry x="2624.26" y="600" width="225" height="31" as="geometry" />
        </mxCell>
        <mxCell id="wPX3c_3ttmvdcpbLun5Z-34" value="&lt;span&gt;extra customer info (country)&lt;/span&gt;" style="text;html=1;align=center;verticalAlign=middle;whiteSpace=wrap;rounded=0;fontStyle=0;fontSize=16;" parent="1" vertex="1">
          <mxGeometry x="2636.39" y="469" width="212.87" height="30" as="geometry" />
        </mxCell>
        <mxCell id="wPX3c_3ttmvdcpbLun5Z-35" value="&lt;font style=&quot;font-size: 17px;&quot;&gt;erp_px_cat_g1v2&lt;/font&gt;" style="swimlane;fontStyle=0;childLayout=stackLayout;horizontal=1;startSize=30;fillColor=#fff2cc;horizontalStack=0;resizeParent=1;resizeParentMax=0;resizeLast=0;collapsible=1;marginBottom=0;html=1;rounded=1;arcSize=20;strokeColor=#d6b656;direction=east;" parent="1" vertex="1">
          <mxGeometry x="2656.76" y="333" width="160" height="80" as="geometry">
            <mxRectangle x="470" y="240" width="60" height="30" as="alternateBounds" />
          </mxGeometry>
        </mxCell>
        <mxCell id="wPX3c_3ttmvdcpbLun5Z-36" value="ID" style="text;strokeColor=none;fillColor=none;align=left;verticalAlign=middle;spacingLeft=4;spacingRight=4;overflow=hidden;rotatable=0;points=[[0,0.5],[1,0.5]];portConstraint=eastwest;whiteSpace=wrap;html=1;rounded=0;fontSize=18;" parent="wPX3c_3ttmvdcpbLun5Z-35" vertex="1">
          <mxGeometry y="30" width="160" height="31" as="geometry" />
        </mxCell>
        <mxCell id="AhRZz3oua6yFKILHg_TF-3" value="&lt;font&gt;&lt;span&gt;PRODUCTS&lt;/span&gt;&lt;/font&gt;&lt;div&gt;&lt;font&gt;&lt;span&gt;&lt;br&gt;&lt;/span&gt;&lt;/font&gt;&lt;/div&gt;" style="text;html=1;strokeColor=#b85450;fillColor=#f8cecc;align=center;verticalAlign=middle;whiteSpace=wrap;overflow=hidden;fontSize=13;fontStyle=1" vertex="1" parent="wPX3c_3ttmvdcpbLun5Z-35">
          <mxGeometry y="61" width="160" height="19" as="geometry" />
        </mxCell>
        <mxCell id="wPX3c_3ttmvdcpbLun5Z-37" value="&lt;span&gt;products category table&lt;/span&gt;" style="text;html=1;align=center;verticalAlign=middle;whiteSpace=wrap;rounded=0;fontSize=15;fontStyle=0" parent="1" vertex="1">
          <mxGeometry x="2654.51" y="301" width="164.5" height="30" as="geometry" />
        </mxCell>
        <mxCell id="wPX3c_3ttmvdcpbLun5Z-44" value="&lt;span style=&quot;font-size: 23px;&quot;&gt;&lt;b&gt;CRM&lt;/b&gt;&lt;/span&gt;" style="rounded=1;whiteSpace=wrap;html=1;fillColor=#dae8fc;strokeColor=#6c8ebf;" parent="1" vertex="1">
          <mxGeometry x="2040" y="200" width="120" height="60" as="geometry" />
        </mxCell>
        <mxCell id="wPX3c_3ttmvdcpbLun5Z-46" value="&lt;span style=&quot;font-size: 23px;&quot;&gt;&lt;b&gt;ERP&lt;/b&gt;&lt;/span&gt;" style="rounded=1;whiteSpace=wrap;html=1;fillColor=#ffe6cc;strokeColor=#d79b00;" parent="1" vertex="1">
          <mxGeometry x="2644.51" y="200" width="120" height="60" as="geometry" />
        </mxCell>
        <mxCell id="wPX3c_3ttmvdcpbLun5Z-48" style="edgeStyle=orthogonalEdgeStyle;rounded=0;orthogonalLoop=1;jettySize=auto;html=1;exitX=0;exitY=0.5;exitDx=0;exitDy=0;entryX=1;entryY=0.5;entryDx=0;entryDy=0;" parent="1" source="wPX3c_3ttmvdcpbLun5Z-32" target="wPX3c_3ttmvdcpbLun5Z-24" edge="1">
          <mxGeometry relative="1" as="geometry">
            <Array as="points">
              <mxPoint x="2480" y="540" />
              <mxPoint x="2480" y="576" />
            </Array>
          </mxGeometry>
        </mxCell>
        <mxCell id="wPX3c_3ttmvdcpbLun5Z-49" style="edgeStyle=orthogonalEdgeStyle;rounded=0;orthogonalLoop=1;jettySize=auto;html=1;exitX=0;exitY=0.5;exitDx=0;exitDy=0;entryX=1;entryY=0.5;entryDx=0;entryDy=0;" parent="1" source="wPX3c_3ttmvdcpbLun5Z-22" target="wPX3c_3ttmvdcpbLun5Z-24" edge="1">
          <mxGeometry relative="1" as="geometry">
            <Array as="points">
              <mxPoint x="2474" y="671" />
              <mxPoint x="2474" y="577" />
            </Array>
          </mxGeometry>
        </mxCell>
        <mxCell id="gMFk5O1mdd122XbkJ8B--2" style="edgeStyle=orthogonalEdgeStyle;rounded=0;orthogonalLoop=1;jettySize=auto;html=1;entryX=1.02;entryY=0.29;entryDx=0;entryDy=0;entryPerimeter=0;" parent="1" source="wPX3c_3ttmvdcpbLun5Z-36" target="gMFk5O1mdd122XbkJ8B--1" edge="1">
          <mxGeometry relative="1" as="geometry" />
        </mxCell>
      </root>
    </mxGraphModel>
  </diagram>
</mxfile>
